<svg xmlns="http://www.w3.org/2000/svg" viewBox="0 0 64 64" width="64" height="64">
  <defs>
    <linearGradient id="primary-grad" x1="0%" y1="0%" x2="100%" y2="100%">
      <stop offset="0%" stop-color="#ef4444" />
      <stop offset="100%" stop-color="#991b1b" />
    </linearGradient>
    <linearGradient id="accent-grad" x1="0%" y1="0%" x2="0%" y2="100%">
      <stop offset="0%" stop-color="#fbbf24" />
      <stop offset="100%" stop-color="#d97706" />
    </linearGradient>
  </defs>
  <rect x="2" y="2" width="60" height="60" rx="16" fill="#111827" stroke="url(#primary-grad)" stroke-width="2" />
  <path d="M16 22 C 22 22, 28 25, 32 28 L 32 48 C 28 45, 22 42, 16 42 Z" fill="url(#primary-grad)" />
  <path d="M48 22 C 42 22, 36 25, 32 28 L 32 48 C 36 45, 42 42, 48 42 Z" fill="url(#primary-grad)" opacity="0.9" />
  <path d="M31 16 H 33 V 34 L 32 32.5 L 31 34 Z" fill="url(#accent-grad)" />
  <path d="M32 10 L 33.5 12.5 L 36 13 L 34 14.5 L 34.5 17 L 32 15.5 L 29.5 17 L 30 14.5 L 28 13 L 30.5 12.5 Z" fill="url(#accent-grad)" />
</svg>